ply
format ascii 1.0
element vertex 72
property float x
property float y
property float z
property float nx
property float ny
property float nz
element face 108
property list uchar int vertex_indices
end_header
-604.5 -454.5 150 0 0 1
-595.5 -454.5 150 1 0 0
-595.5 454.5 400 0 1 0
-604.5 454.5 400 -1 0 0
-604.5 -454.5 0 0 -1 0
-595.5 -454.5 0 0 0 -1
-595.5 454.5 0 1 0 0
-604.5 454.5 0 1 0 0
-304.5 -445.5 237.5 0 0 1
-295.5 -445.5 237.5 1 0 0
-295.5 445.5 325 0 1 0
-304.5 445.5 325 -1 0 0
-304.5 -445.5 0 0 -1 0
-295.5 -445.5 0 0 0 -1
-295.5 445.5 0 1 0 0
-304.5 445.5 0 1 0 0
-4.5 -445.5 325 0 0 1
4.5 -445.5 325 1 0 0
4.5 445.5 250 0 1 0
-4.5 445.5 250 -1 0 0
-4.5 -445.5 0 0 -1 0
4.5 -445.5 0 0 0 -1
4.5 445.5 0 1 0 0
-4.5 445.5 0 1 0 0
295.5 -445.5 412.5 0 0 1
304.5 -445.5 412.5 1 0 0
304.5 445.5 175 0 1 0
295.5 445.5 175 -1 0 0
295.5 -445.5 0 0 -1 0
304.5 -445.5 0 0 0 -1
304.5 445.5 0 1 0 0
295.5 445.5 0 1 0 0
595.5 -454.5 500 0 0 1
604.5 -454.5 500 1 0 0
604.5 454.5 100 0 1 0
595.5 454.5 100 -1 0 0
595.5 -454.5 0 0 -1 0
604.5 -454.5 0 0 0 -1
604.5 454.5 0 1 0 0
595.5 454.5 0 1 0 0
-595.5 -454.5 150 0 0 1
595.5 -454.5 500 1 0 0
595.5 -445.5 500 0 1 0
-595.5 -445.5 150 -1 0 0
-595.5 -454.5 0 0 -1 0
595.5 -454.5 0 0 0 -1
595.5 -445.5 0 1 0 0
-595.5 -445.5 0 1 0 0
-595.5 -154.5 233.333 0 0 1
595.5 -154.5 366.667 1 0 0
595.5 -145.5 366.667 0 1 0
-595.5 -145.5 233.333 -1 0 0
-595.5 -154.5 0 0 -1 0
595.5 -154.5 0 0 0 -1
595.5 -145.5 0 1 0 0
-595.5 -145.5 0 1 0 0
-595.5 145.5 316.667 0 0 1
595.5 145.5 233.333 1 0 0
595.5 154.5 233.333 0 1 0
-595.5 154.5 316.667 -1 0 0
-595.5 145.5 0 0 -1 0
595.5 145.5 0 0 0 -1
595.5 154.5 0 1 0 0
-595.5 154.5 0 1 0 0
-595.5 445.5 400 0 0 1
595.5 445.5 100 1 0 0
595.5 454.5 100 0 1 0
-595.5 454.5 400 -1 0 0
-595.5 445.5 0 0 -1 0
595.5 445.5 0 0 0 -1
595.5 454.5 0 1 0 0
-595.5 454.5 0 1 0 0
3 0 1 2
3 0 2 3
3 1 5 6
3 1 6 2
3 2 6 7
3 2 7 3
3 3 4 0
3 3 7 4
3 4 5 1
3 4 1 0
3 5 7 6
3 5 4 7
3 8 9 10
3 8 10 11
3 9 13 14
3 9 14 10
3 10 14 15
3 10 15 11
3 11 12 8
3 11 15 12
3 12 13 9
3 12 9 8
3 13 15 14
3 13 12 15
3 16 17 18
3 16 18 19
3 17 21 22
3 17 22 18
3 18 22 23
3 18 23 19
3 19 20 16
3 19 23 20
3 20 21 17
3 20 17 16
3 21 23 22
3 21 20 23
3 24 25 26
3 24 26 27
3 25 29 30
3 25 30 26
3 26 30 31
3 26 31 27
3 27 28 24
3 27 31 28
3 28 29 25
3 28 25 24
3 29 31 30
3 29 28 31
3 32 33 34
3 32 34 35
3 33 37 38
3 33 38 34
3 34 38 39
3 34 39 35
3 35 36 32
3 35 39 36
3 36 37 33
3 36 33 32
3 37 39 38
3 37 36 39
3 40 41 42
3 40 42 43
3 41 45 46
3 41 46 42
3 42 46 47
3 42 47 43
3 43 44 40
3 43 47 44
3 44 45 41
3 44 41 40
3 45 47 46
3 45 44 47
3 48 49 50
3 48 50 51
3 49 53 54
3 49 54 50
3 50 54 55
3 50 55 51
3 51 52 48
3 51 55 52
3 52 53 49
3 52 49 48
3 53 55 54
3 53 52 55
3 56 57 58
3 56 58 59
3 57 61 62
3 57 62 58
3 58 62 63
3 58 63 59
3 59 60 56
3 59 63 60
3 60 61 57
3 60 57 56
3 61 63 62
3 61 60 63
3 64 65 66
3 64 66 67
3 65 69 70
3 65 70 66
3 66 70 71
3 66 71 67
3 67 68 64
3 67 71 68
3 68 69 65
3 68 65 64
3 69 71 70
3 69 68 71
