ply
format ascii 1.0
element vertex 112
property float x
property float y
property float z
property float nx
property float ny
property float nz
element face 168
property list uchar int vertex_indices
end_header
-265.5 -301.5 300 0 0 1
-256.5 -301.5 300 1 0 0
-256.5 301.5 515 0 1 0
-265.5 301.5 515 -1 0 0
-265.5 -301.5 0 0 -1 0
-256.5 -301.5 0 0 0 -1
-256.5 301.5 0 1 0 0
-265.5 301.5 0 1 0 0
-178.5 -292.5 340 0 0 1
-169.5 -292.5 340 1 0 0
-169.5 292.5 479.167 0 1 0
-178.5 292.5 479.167 -1 0 0
-178.5 -292.5 0 0 -1 0
-169.5 -292.5 0 0 0 -1
-169.5 292.5 0 1 0 0
-178.5 292.5 0 1 0 0
-91.5 -292.5 380 0 0 1
-82.5 -292.5 380 1 0 0
-82.5 292.5 443.333 0 1 0
-91.5 292.5 443.333 -1 0 0
-91.5 -292.5 0 0 -1 0
-82.5 -292.5 0 0 0 -1
-82.5 292.5 0 1 0 0
-91.5 292.5 0 1 0 0
-4.5 -292.5 420 0 0 1
4.5 -292.5 420 1 0 0
4.5 292.5 407.5 0 1 0
-4.5 292.5 407.5 -1 0 0
-4.5 -292.5 0 0 -1 0
4.5 -292.5 0 0 0 -1
4.5 292.5 0 1 0 0
-4.5 292.5 0 1 0 0
82.5 -292.5 460 0 0 1
91.5 -292.5 460 1 0 0
91.5 292.5 371.667 0 1 0
82.5 292.5 371.667 -1 0 0
82.5 -292.5 0 0 -1 0
91.5 -292.5 0 0 0 -1
91.5 292.5 0 1 0 0
82.5 292.5 0 1 0 0
169.5 -292.5 500 0 0 1
178.5 -292.5 500 1 0 0
178.5 292.5 335.833 0 1 0
169.5 292.5 335.833 -1 0 0
169.5 -292.5 0 0 -1 0
178.5 -292.5 0 0 0 -1
178.5 292.5 0 1 0 0
169.5 292.5 0 1 0 0
256.5 -301.5 540 0 0 1
265.5 -301.5 540 1 0 0
265.5 301.5 300 0 1 0
256.5 301.5 300 -1 0 0
256.5 -301.5 0 0 -1 0
265.5 -301.5 0 0 0 -1
265.5 301.5 0 1 0 0
256.5 301.5 0 1 0 0
-256.5 -301.5 300 0 0 1
256.5 -301.5 540 1 0 0
256.5 -292.5 540 0 1 0
-256.5 -292.5 300 -1 0 0
-256.5 -301.5 0 0 -1 0
256.5 -301.5 0 0 0 -1
256.5 -292.5 0 1 0 0
-256.5 -292.5 0 1 0 0
-256.5 -202.5 335.833 0 0 1
256.5 -202.5 500 1 0 0
256.5 -193.5 500 0 1 0
-256.5 -193.5 335.833 -1 0 0
-256.5 -202.5 0 0 -1 0
256.5 -202.5 0 0 0 -1
256.5 -193.5 0 1 0 0
-256.5 -193.5 0 1 0 0
-256.5 -103.5 371.667 0 0 1
256.5 -103.5 460 1 0 0
256.5 -94.5 460 0 1 0
-256.5 -94.5 371.667 -1 0 0
-256.5 -103.5 0 0 -1 0
256.5 -103.5 0 0 0 -1
256.5 -94.5 0 1 0 0
-256.5 -94.5 0 1 0 0
-256.5 -4.5 407.5 0 0 1
256.5 -4.5 420 1 0 0
256.5 4.5 420 0 1 0
-256.5 4.5 407.5 -1 0 0
-256.5 -4.5 0 0 -1 0
256.5 -4.5 0 0 0 -1
256.5 4.5 0 1 0 0
-256.5 4.5 0 1 0 0
-256.5 94.5 443.333 0 0 1
256.5 94.5 380 1 0 0
256.5 103.5 380 0 1 0
-256.5 103.5 443.333 -1 0 0
-256.5 94.5 0 0 -1 0
256.5 94.5 0 0 0 -1
256.5 103.5 0 1 0 0
-256.5 103.5 0 1 0 0
-256.5 193.5 479.167 0 0 1
256.5 193.5 340 1 0 0
256.5 202.5 340 0 1 0
-256.5 202.5 479.167 -1 0 0
-256.5 193.5 0 0 -1 0
256.5 193.5 0 0 0 -1
256.5 202.5 0 1 0 0
-256.5 202.5 0 1 0 0
-256.5 292.5 515 0 0 1
256.5 292.5 300 1 0 0
256.5 301.5 300 0 1 0
-256.5 301.5 515 -1 0 0
-256.5 292.5 0 0 -1 0
256.5 292.5 0 0 0 -1
256.5 301.5 0 1 0 0
-256.5 301.5 0 1 0 0
3 0 1 2
3 0 2 3
3 1 5 6
3 1 6 2
3 2 6 7
3 2 7 3
3 3 4 0
3 3 7 4
3 4 5 1
3 4 1 0
3 5 7 6
3 5 4 7
3 8 9 10
3 8 10 11
3 9 13 14
3 9 14 10
3 10 14 15
3 10 15 11
3 11 12 8
3 11 15 12
3 12 13 9
3 12 9 8
3 13 15 14
3 13 12 15
3 16 17 18
3 16 18 19
3 17 21 22
3 17 22 18
3 18 22 23
3 18 23 19
3 19 20 16
3 19 23 20
3 20 21 17
3 20 17 16
3 21 23 22
3 21 20 23
3 24 25 26
3 24 26 27
3 25 29 30
3 25 30 26
3 26 30 31
3 26 31 27
3 27 28 24
3 27 31 28
3 28 29 25
3 28 25 24
3 29 31 30
3 29 28 31
3 32 33 34
3 32 34 35
3 33 37 38
3 33 38 34
3 34 38 39
3 34 39 35
3 35 36 32
3 35 39 36
3 36 37 33
3 36 33 32
3 37 39 38
3 37 36 39
3 40 41 42
3 40 42 43
3 41 45 46
3 41 46 42
3 42 46 47
3 42 47 43
3 43 44 40
3 43 47 44
3 44 45 41
3 44 41 40
3 45 47 46
3 45 44 47
3 48 49 50
3 48 50 51
3 49 53 54
3 49 54 50
3 50 54 55
3 50 55 51
3 51 52 48
3 51 55 52
3 52 53 49
3 52 49 48
3 53 55 54
3 53 52 55
3 56 57 58
3 56 58 59
3 57 61 62
3 57 62 58
3 58 62 63
3 58 63 59
3 59 60 56
3 59 63 60
3 60 61 57
3 60 57 56
3 61 63 62
3 61 60 63
3 64 65 66
3 64 66 67
3 65 69 70
3 65 70 66
3 66 70 71
3 66 71 67
3 67 68 64
3 67 71 68
3 68 69 65
3 68 65 64
3 69 71 70
3 69 68 71
3 72 73 74
3 72 74 75
3 73 77 78
3 73 78 74
3 74 78 79
3 74 79 75
3 75 76 72
3 75 79 76
3 76 77 73
3 76 73 72
3 77 79 78
3 77 76 79
3 80 81 82
3 80 82 83
3 81 85 86
3 81 86 82
3 82 86 87
3 82 87 83
3 83 84 80
3 83 87 84
3 84 85 81
3 84 81 80
3 85 87 86
3 85 84 87
3 88 89 90
3 88 90 91
3 89 93 94
3 89 94 90
3 90 94 95
3 90 95 91
3 91 92 88
3 91 95 92
3 92 93 89
3 92 89 88
3 93 95 94
3 93 92 95
3 96 97 98
3 96 98 99
3 97 101 102
3 97 102 98
3 98 102 103
3 98 103 99
3 99 100 96
3 99 103 100
3 100 101 97
3 100 97 96
3 101 103 102
3 101 100 103
3 104 105 106
3 104 106 107
3 105 109 110
3 105 110 106
3 106 110 111
3 106 111 107
3 107 108 104
3 107 111 108
3 108 109 105
3 108 105 104
3 109 111 110
3 109 108 111
